<?xml version="1.0" standalone="no"?>
<!DOCTYPE svg PUBLIC "-//W3C//DTD SVG 20010904//EN"
 "http://www.w3.org/TR/2001/REC-SVG-20010904/DTD/svg10.dtd">
<svg version="1.0" xmlns="http://www.w3.org/2000/svg"
 width="32.000000pt" height="32.000000pt" viewBox="0 0 512.000000 512.000000"
 preserveAspectRatio="xMidYMid meet">

<g transform="translate(0.000000,512.000000) scale(0.062500,-0.062500)"
fill="#FFFFFF" stroke="none">
<path d="M2107 4542 l-317 -317 0 -188 c0 -103 3 -187 7 -187 5 0 119 111 255
247 l248 248 0 -2173 0 -2172 130 0 130 0 0 2177 0 2178 255 -255 255 -255 0
190 0 190 -318 318 c-174 174 -319 317 -322 317 -3 0 -148 -143 -323 -318z"/>
</g>
</svg>

