<svg xmlns="http://www.w3.org/2000/svg" viewBox="0 0 64 64" id="csv-file"><polygon fill="#78b9eb" points="61 7 61 61 21 61 21 57 57 57 57 15 49 7 61 7"></polygon><rect width="50" height="20" x="3" y="22" fill="#78b9eb"></rect><path fill="#006df0" d="M61,6H49.414L45.707,2.293A1,1,0,0,0,45,2H17a1,1,0,0,0-1,1V21H3a1,1,0,0,0-1,1V42a1,1,0,0,0,1,1H16V57a1,1,0,0,0,1,1h3v3a1,1,0,0,0,1,1H61a1,1,0,0,0,1-1V7A1,1,0,0,0,61,6ZM46,5.414,54.586,14H47a1,1,0,0,1-1-1ZM4,23H52V41H4ZM18,43H53a1,1,0,0,0,1-1V22a1,1,0,0,0-1-1H18V4H44v9a3,3,0,0,0,3,3h9V56H18ZM60,60H22V58H57a1,1,0,0,0,1-1V15a1,1,0,0,0-.293-.707L51.414,8H60Z"></path><path fill="#006df0" d="M11 28v8a3 3 0 0 0 3 3h7V37H14a1 1 0 0 1-1-1V28a1 1 0 0 1 1-1h7V25H14A3 3 0 0 0 11 28zM32 25H24a1 1 0 0 0-1 1v6a1 1 0 0 0 1 1h7v4H25V35H23v3a1 1 0 0 0 1 1h8a1 1 0 0 0 1-1V32a1 1 0 0 0-1-1H25V27h6v2h2V26A1 1 0 0 0 32 25zM44 25H41v2h1.612L40 34.838 37.388 27H39V25H36a1 1 0 0 0-.948 1.316l4 12a1 1 0 0 0 1.9 0l4-12A1 1 0 0 0 44 25z"></path></svg>