<?xml version="1.0" standalone="no"?>
<!DOCTYPE svg PUBLIC "-//W3C//DTD SVG 20010904//EN"
 "http://www.w3.org/TR/2001/REC-SVG-20010904/DTD/svg10.dtd">
<svg version="1.0" xmlns="http://www.w3.org/2000/svg"
 width="820.000000pt" height="481.000000pt" viewBox="0 0 820.000000 481.000000"
 preserveAspectRatio="xMidYMid meet">

<g transform="translate(0.000000,481.000000) scale(0.100000,-0.100000)"
fill="gray" stroke="none">
<path d="M3782 4087 l-312 -312 0 -212 0 -213 -632 -2 -633 -3 0 -1470 0
-1470 1895 0 1895 0 0 1050 0 1050 -632 3 -633 2 0 633 0 632 -313 313 c-171
171 -314 312 -317 312 -3 0 -146 -141 -318 -313z m528 -527 l0 -210 -210 0
-210 0 0 210 0 210 210 0 210 0 0 -210z m-1260 -840 l0 -210 -210 0 -210 0 0
210 0 210 210 0 210 0 0 -210z m1260 0 l0 -210 -210 0 -210 0 0 210 0 210 210
0 210 0 0 -210z m-1260 -850 l0 -210 -210 0 -210 0 0 210 0 210 210 0 210 0 0
-210z m1260 0 l0 -210 -210 0 -210 0 0 210 0 210 210 0 210 0 0 -210z m1260 0
l0 -210 -210 0 -210 0 0 210 0 210 210 0 210 0 0 -210z m-2520 -840 l0 -210
-210 0 -210 0 0 210 0 210 210 0 210 0 0 -210z m1260 0 l0 -210 -210 0 -210 0
0 210 0 210 210 0 210 0 0 -210z m1260 0 l0 -210 -210 0 -210 0 0 210 0 210
210 0 210 0 0 -210z"/>
</g>
</svg>
