<svg version="1.1" id="Layer_1" xmlns="http://www.w3.org/2000/svg" xmlns:xlink="http://www.w3.org/1999/xlink" x="0px" y="0px"
	 width="100%" viewBox="0 0 225 225" enable-background="new 0 0 225 225" xml:space="preserve">


<!-- <path fill="#040404" opacity="1.000000" stroke="none" 
	d="
M1.000000,190.000000 
	C1.000000,138.979111 1.000000,87.958214 1.344035,36.388397 
	C4.043793,28.897623 9.262784,26.051836 16.203089,26.019911 
	C33.009220,25.942600 49.816032,26.024734 66.622391,25.978643 
	C72.568520,25.962337 77.208511,28.288073 80.628426,33.146793 
	C84.165871,38.172489 87.934914,43.046757 91.247711,48.214787 
	C93.344353,51.485577 95.729736,52.747734 99.728989,52.713367 
	C124.021721,52.504597 148.323257,52.929466 172.608963,52.466408 
	C183.791580,52.253189 191.184311,57.209061 190.392838,70.063255 
	C189.855774,78.785675 190.290283,87.567924 190.290283,96.695076 
	C195.066727,96.695076 199.212006,96.928200 203.322723,96.650185 
	C214.455566,95.897270 222.175400,100.313881 226.000000,111.000000 
	C226.000000,113.041664 226.000000,115.083336 225.693878,117.749588 
	C224.468353,120.673820 223.702698,123.049721 222.605789,125.261322 
	C211.331467,147.992737 199.890976,170.642715 188.778839,193.452789 
	C186.351074,198.436295 183.315033,200.453568 177.638885,200.432602 
	C124.695915,200.237091 71.751343,200.193207 18.808823,200.442810 
	C10.332764,200.482758 4.429849,197.765030 1.000000,190.000000 
M100.500092,109.798523 
	C87.007660,109.798630 73.514206,109.891724 60.023403,109.743660 
	C55.831089,109.697655 53.405933,111.197601 51.602337,115.127769 
	C41.087196,138.041031 30.319128,160.838181 19.658260,183.684723 
	C19.157854,184.757126 18.864950,185.926361 18.455114,187.109055 
	C19.272020,187.271729 19.596996,187.393021 19.922022,187.393158 
	C71.226265,187.412903 122.530586,187.453033 173.834351,187.300934 
	C175.446793,187.296158 177.734344,185.673477 178.547226,184.175583 
	C182.500839,176.890259 186.063522,169.392548 189.756119,161.965820 
	C196.998795,147.399078 204.246628,132.834869 211.469589,118.258331 
	C214.129517,112.890381 212.474594,110.135559 206.440262,109.823868 
	C205.111038,109.755211 203.775742,109.799255 202.443253,109.799217 
	C168.795532,109.798355 135.147812,109.798523 100.500092,109.798523 
M79.008003,53.494766 
	C76.312759,49.696121 73.864548,45.681019 70.811050,42.196285 
	C69.424133,40.613495 66.863487,39.274673 64.791946,39.209862 
	C54.970200,38.902561 45.133518,39.072906 35.302155,39.073021 
	C28.358116,39.073101 21.414076,39.073036 14.400768,39.073036 
	C14.400768,80.564598 14.400768,121.504501 14.400768,163.973923 
	C23.095339,145.311783 31.344793,128.137634 39.103519,110.744560 
	C43.500008,100.888756 50.409119,96.503670 61.288662,96.590179 
	C98.112274,96.883011 134.939667,96.701767 171.765610,96.701691 
	C173.512283,96.701683 175.258972,96.701691 176.915741,96.701691 
	C176.915741,85.899742 176.915741,75.837204 176.915741,65.405212 
	C174.738007,65.405212 172.930695,65.405212 171.123383,65.405212 
	C147.961365,65.405212 124.787529,64.972961 101.642776,65.605141 
	C91.532043,65.881310 84.119072,63.168266 79.008003,53.494766 
z"/> -->

<!-- <path fill="#FDFDFD" opacity="1.000000" stroke="none" 
	d="
M226.000000,110.531342 
	C222.175400,100.313881 214.455566,95.897270 203.322723,96.650185 
	C199.212006,96.928200 195.066727,96.695076 190.290283,96.695076 
	C190.290283,87.567924 189.855774,78.785675 190.392838,70.063255 
	C191.184311,57.209061 183.791580,52.253189 172.608963,52.466408 
	C148.323257,52.929466 124.021721,52.504597 99.728989,52.713367 
	C95.729736,52.747734 93.344353,51.485577 91.247711,48.214787 
	C87.934914,43.046757 84.165871,38.172489 80.628426,33.146793 
	C77.208511,28.288073 72.568520,25.962337 66.622391,25.978643 
	C49.816032,26.024734 33.009220,25.942600 16.203089,26.019911 
	C9.262784,26.051836 4.043793,28.897623 1.344035,35.919739 
	C1.000000,24.347141 1.000000,12.694282 1.000000,1.020711 
	C75.897423,1.020711 150.794861,1.020711 226.000000,1.020711 
	C226.000000,37.353649 226.000000,73.708168 226.000000,110.531342 
z"/> -->

<!-- <path fill="#FCFCFC" opacity="1.000000" stroke="none" 
	d="
M1.000000,190.468658 
	C4.429849,197.765030 10.332764,200.482758 18.808823,200.442810 
	C71.751343,200.193207 124.695915,200.237091 177.638885,200.432602 
	C183.315033,200.453568 186.351074,198.436295 188.778839,193.452789 
	C199.890976,170.642715 211.331467,147.992737 222.605789,125.261322 
	C223.702698,123.049721 224.468353,120.673820 225.693878,118.187088 
	C226.000000,153.957275 226.000000,189.914566 226.000000,225.935913 
	C151.000015,225.935913 76.000015,225.935913 1.000000,225.935913 
	C1.000000,214.242935 1.000000,202.590118 1.000000,190.468658 
z"/> -->


<path fill="#FFFFFF" opacity="1.000000" stroke="none" 
	d="
M101.000092,109.798523 
	C135.147812,109.798523 168.795532,109.798355 202.443253,109.799217 
	C203.775742,109.799255 205.111038,109.755211 206.440262,109.823868 
	C212.474594,110.135559 214.129517,112.890381 211.469589,118.258331 
	C204.246628,132.834869 196.998795,147.399078 189.756119,161.965820 
	C186.063522,169.392548 182.500839,176.890259 178.547226,184.175583 
	C177.734344,185.673477 175.446793,187.296158 173.834351,187.300934 
	C122.530586,187.453033 71.226265,187.412903 19.922022,187.393158 
	C19.596996,187.393021 19.272020,187.271729 18.455114,187.109055 
	C18.864950,185.926361 19.157854,184.757126 19.658260,183.684723 
	C30.319128,160.838181 41.087196,138.041031 51.602337,115.127769 
	C53.405933,111.197601 55.831089,109.697655 60.023403,109.743660 
	C73.514206,109.891724 87.007660,109.798630 101.000092,109.798523 
z"/>
<path fill="#FBFBFB" opacity="1.000000" stroke="none" 
	d="
M79.220695,53.782547 
	C84.119072,63.168266 91.532043,65.881310 101.642776,65.605141 
	C124.787529,64.972961 147.961365,65.405212 171.123383,65.405212 
	C172.930695,65.405212 174.738007,65.405212 176.915741,65.405212 
	C176.915741,75.837204 176.915741,85.899742 176.915741,96.701691 
	C175.258972,96.701691 173.512283,96.701683 171.765610,96.701691 
	C134.939667,96.701767 98.112274,96.883011 61.288662,96.590179 
	C50.409119,96.503670 43.500008,100.888756 39.103519,110.744560 
	C31.344793,128.137634 23.095339,145.311783 14.400768,163.973923 
	C14.400768,121.504501 14.400768,80.564598 14.400768,39.073036 
	C21.414076,39.073036 28.358116,39.073101 35.302155,39.073021 
	C45.133518,39.072906 54.970200,38.902561 64.791946,39.209862 
	C66.863487,39.274673 69.424133,40.613495 70.811050,42.196285 
	C73.864548,45.681019 76.312759,49.696121 79.220695,53.782547 
z"/>


</svg>